<svg width="252" height="80" viewBox="0 0 252 80" fill="none" xmlns="http://www.w3.org/2000/svg">
<rect width="252" height="80" fill="white"/>
<g clip-path="url(#clip0_206_389)">
<path d="M78.6021 38.673C78.6021 40.4003 78.1915 41.6741 77.3728 42.4991C76.5516 43.3242 75.3051 43.738 73.6259 43.738H68.3104V47.0706H65.4756V33.932H73.589C75.3666 33.932 76.6475 34.2959 77.4293 35.0263C78.2112 35.7566 78.6021 36.9705 78.6021 38.673ZM73.0801 36.1779H68.3104V41.4896H73.1169C74.0045 41.4896 74.6634 41.2777 75.0887 40.8515C75.5141 40.4278 75.728 39.7074 75.728 38.6904C75.728 37.6734 75.5411 37.0353 75.165 36.6913C74.7888 36.3474 74.0955 36.1779 73.0801 36.1779Z" fill="#1C252E"/>
<path d="M86.6952 47.0681H83.4671L85.3996 44.0421L78.958 33.932H82.3386L86.9018 41.6417L91.0347 33.932H94.2087L86.6952 47.0681Z" fill="#1C252E"/>
<path d="M106.394 42.5365H109.325C109.123 44.3137 108.467 45.56 107.353 46.2779C106.239 46.9958 104.474 47.3547 102.057 47.3547C99.3772 47.3547 97.4521 46.8612 96.2818 45.8691C95.1115 44.8795 94.5264 43.0948 94.5264 40.52C94.5264 39.1615 94.6788 38.0298 94.9861 37.1225C95.2935 36.2152 95.7778 35.5098 96.4416 35.0088C97.1054 34.5078 97.8799 34.1563 98.7699 33.9519C99.6575 33.75 100.754 33.6478 102.057 33.6478C104.41 33.6478 106.143 33.9943 107.259 34.6848C108.373 35.3777 109.032 36.5916 109.231 38.3314H106.32C106.158 37.3668 105.747 36.7262 105.091 36.4096C104.435 36.0931 103.422 35.9336 102.06 35.9336C101.383 35.9336 100.823 35.961 100.378 36.0183C99.9328 36.0756 99.5075 36.1928 99.1018 36.3698C98.6937 36.5467 98.3765 36.8035 98.143 37.14C97.9119 37.4765 97.7299 37.9252 97.5972 38.4835C97.4644 39.0418 97.4005 39.7198 97.4005 40.52C97.4005 41.4846 97.4939 42.2723 97.6832 42.8805C97.8701 43.4887 98.1749 43.9523 98.5929 44.2713C99.0133 44.5879 99.4854 44.8023 100.012 44.9095C100.538 45.0166 101.219 45.0715 102.06 45.0715C103.424 45.0715 104.449 44.8995 105.14 44.558C105.829 44.214 106.249 43.5435 106.399 42.539" fill="#1C252E"/>
<path d="M109.588 47.0681L116.216 33.932H118.677L125.249 47.0681H122.075L121.023 44.8023H113.681L112.612 47.0681H109.588ZM117.401 36.9207L114.66 42.7459H120.086L117.401 36.9207Z" fill="#1C252E"/>
<path d="M137.775 33.932V36.31H129.251V47.0681H126.414V33.932H137.775Z" fill="#1C252E"/>
<path d="M152.46 38.673C152.46 40.4003 152.05 41.6741 151.231 42.4991C150.412 43.3242 149.163 43.738 147.484 43.738H142.169V47.0706H139.334V33.932H147.447C149.225 33.932 150.506 34.2959 151.288 35.0263C152.07 35.7566 152.46 36.9705 152.46 38.673ZM146.938 36.1779H142.169V41.4896H146.975C147.863 41.4896 148.522 41.2777 148.947 40.8515C149.372 40.4278 149.586 39.7074 149.586 38.6904C149.586 37.6734 149.4 37.0353 149.023 36.6913C148.647 36.3474 147.954 36.1779 146.938 36.1779Z" fill="#1C252E"/>
<path d="M165.344 47.0307C164.405 47.2475 163.239 47.3547 161.85 47.3547C160.461 47.3547 159.298 47.2475 158.366 47.0307C157.434 46.8163 156.638 46.4474 155.981 45.9264C155.325 45.4055 154.846 44.7051 154.546 43.8227C154.246 42.9403 154.096 41.8386 154.096 40.52C154.096 39.2014 154.256 38.0298 154.575 37.1225C154.895 36.2152 155.394 35.5098 156.077 35.0088C156.761 34.5078 157.557 34.1563 158.472 33.9519C159.387 33.75 160.513 33.6478 161.853 33.6478C163.193 33.6478 164.333 33.75 165.243 33.9519C166.15 34.1563 166.949 34.5078 167.638 35.0088C168.326 35.5098 168.828 36.2152 169.14 37.1225C169.452 38.0298 169.61 39.164 169.61 40.52C169.61 41.8759 169.462 42.9403 169.167 43.8227C168.872 44.7051 168.397 45.4055 167.739 45.9264C167.082 46.4474 166.283 46.8163 165.344 47.0307ZM159.662 44.8696C160.22 44.9768 160.948 45.0316 161.85 45.0316C162.752 45.0316 163.48 44.9768 164.038 44.8696C164.596 44.7624 165.093 44.548 165.531 44.2315C165.968 43.9149 166.283 43.4563 166.47 42.8605C166.657 42.2648 166.753 41.4846 166.753 40.5175C166.753 39.5503 166.659 38.7278 166.47 38.1196C166.283 37.5114 165.966 37.0502 165.521 36.7387C165.076 36.4271 164.582 36.2227 164.038 36.1205C163.493 36.0183 162.765 35.9685 161.85 35.9685C161.125 35.9685 160.525 35.9959 160.055 36.0532C159.586 36.1105 159.136 36.2277 158.703 36.4047C158.27 36.5816 157.939 36.8384 157.707 37.1749C157.476 37.5114 157.294 37.9526 157.164 38.4985C157.034 39.0443 156.967 39.7173 156.967 40.5175C156.967 41.4821 157.061 42.2623 157.25 42.8605C157.437 43.4563 157.747 43.9149 158.179 44.2315C158.612 44.548 159.106 44.7624 159.662 44.8696Z" fill="#1C252E"/>
<path d="M189.023 33.932V36.3299H183.37V47.0681H180.536V36.3299H174.9V33.932H189.023Z" fill="#1C252E"/>
<path d="M201.963 44.7824V47.0681H190.378V33.932H201.946V36.2152H193.213V39.3385H201.796V41.5843H193.213V44.7824H201.963Z" fill="#1C252E"/>
<path d="M214.43 47.0681L210.47 41.9856L206.543 47.0681H202.956L208.554 40.4801L203.276 33.932H206.789L210.526 38.9571L214.28 33.932H217.681L212.441 40.5L218 47.0681H214.43Z" fill="#1C252E"/>
<path d="M52.6313 40.0214V37.0128C50.8661 37.8678 49.1868 38.8773 47.6084 40.0214H52.6313Z" fill="#1C252E"/>
<path d="M39.9521 40.0215H43.6573C46.3789 37.6435 49.4006 35.7192 52.6312 34.286V31.3945C47.8467 33.3986 43.5442 36.3523 39.9546 40.0215" fill="#1C252E"/>
<path d="M39.7881 40.9786V43.9572C40.3904 43.2468 41.0198 42.5539 41.6812 41.8834C41.9861 41.5743 42.2983 41.2727 42.6106 40.9761H39.7881V40.9786Z" fill="#1C252E"/>
<path d="M52.6318 54.0001V40.9786H46.355C43.8522 42.9802 41.6394 45.3357 39.7881 47.9729V54.0001H52.6318Z" fill="#1C252E"/>
<path d="M33.7669 54C35.0232 50.8294 36.7246 47.8433 38.8439 45.1213V41.2054C35.5223 44.8945 32.8867 49.2317 31.1436 54.0025H33.7669V54Z" fill="#1C252E"/>
<path d="M38.8436 54V49.3937C37.9217 50.8568 37.1103 52.3973 36.417 54H38.8436Z" fill="#1C252E"/>
<path d="M28.5519 54.0001C30.15 49.279 32.5914 44.8771 35.7974 40.9786H32.7291C29.8181 44.8671 27.5292 49.2566 26.0146 54.0001H28.5519Z" fill="#1C252E"/>
<path d="M26 47.3772C27.0572 45.1563 28.289 43.0176 29.6953 40.9786H26V47.3772Z" fill="#1C252E"/>
<path d="M52.6318 28.7224V27H50.4216C46.5615 28.6601 42.9843 30.871 39.7881 33.5356V36.7536C43.5916 33.249 47.9408 30.5445 52.6318 28.7224Z" fill="#1C252E"/>
<path d="M30.3739 40.0214C31.7384 38.1445 33.2529 36.3573 34.91 34.6797C36.1639 33.4085 37.4792 32.2245 38.8462 31.1203V27H26V40.0214H30.3739Z" fill="#1C252E"/>
<path d="M33.4668 40.0214H36.6089C37.1645 39.3858 37.7399 38.7601 38.3373 38.1544C38.5045 37.9849 38.6741 37.8179 38.8438 37.6534V34.3457C36.8892 36.0706 35.0895 37.9725 33.4668 40.0214Z" fill="#1C252E"/>
<path d="M39.7881 30.3775C41.4157 29.1337 43.1146 28.0045 44.8749 27H39.7881V30.3775Z" fill="#1C252E"/>
</g>
<defs>
<clipPath id="clip0_206_389">
<rect width="192" height="27" fill="white" transform="translate(26 27)"/>
</clipPath>
</defs>
</svg>
