<svg width="351" height="50" viewBox="0 0 351 50" fill="none" xmlns="http://www.w3.org/2000/svg">
<g clip-path="url(#clip0_206_2899)">
<path d="M96.1628 21.6165C96.1628 24.8153 95.4122 27.1741 93.9155 28.7019C92.4143 30.2298 90.1355 30.9961 87.0657 30.9961H77.3483V37.1676H72.166V12.8369H86.9983C90.2479 12.8369 92.5896 13.5108 94.0189 14.8633C95.4482 16.2158 96.1628 18.4638 96.1628 21.6165ZM86.0679 16.9959H77.3483V26.8325H86.1353C87.7579 26.8325 88.9624 26.4401 89.74 25.6508C90.5176 24.8661 90.9086 23.5321 90.9086 21.6488C90.9086 19.7655 90.567 18.5838 89.8793 17.9468C89.1917 17.3098 87.9242 16.9959 86.0679 16.9959Z" fill="#1C252E"/>
<path d="M110.959 37.163H105.058L108.591 31.5592L96.8146 12.8369H102.995L111.337 27.1141L118.892 12.8369H124.695L110.959 37.163Z" fill="#1C252E"/>
<path d="M146.97 28.771H152.328C151.959 32.0622 150.759 34.3702 148.723 35.6996C146.687 37.029 143.46 37.6937 139.042 37.6937C134.143 37.6937 130.623 36.7797 128.484 34.9426C126.344 33.11 125.275 29.805 125.275 25.0367C125.275 22.521 125.553 20.4254 126.115 18.7452C126.677 17.065 127.562 15.7587 128.776 14.8309C129.99 13.9031 131.405 13.2522 133.032 12.8737C134.655 12.4998 136.66 12.3105 139.042 12.3105C143.343 12.3105 146.512 12.9522 148.552 14.2308C150.588 15.514 151.793 17.762 152.157 20.9839H146.835C146.539 19.1975 145.788 18.0112 144.588 17.425C143.388 16.8388 141.536 16.5434 139.046 16.5434C137.81 16.5434 136.785 16.5942 135.972 16.7003C135.158 16.8065 134.381 17.0234 133.639 17.3512C132.893 17.6789 132.313 18.1543 131.886 18.7775C131.464 19.4007 131.131 20.2315 130.888 21.2655C130.646 22.2995 130.529 23.555 130.529 25.0367C130.529 26.8231 130.7 28.2817 131.046 29.408C131.387 30.5343 131.945 31.3929 132.709 31.9837C133.477 32.57 134.34 32.9669 135.302 33.1654C136.264 33.3639 137.509 33.4655 139.046 33.4655C141.541 33.4655 143.415 33.147 144.678 32.5146C145.937 31.8776 146.705 30.6359 146.979 28.7757" fill="#1C252E"/>
<path d="M152.809 37.163L164.926 12.8369H169.426L181.44 37.163H175.637L173.713 32.9671H160.292L158.337 37.163H152.809ZM167.093 18.3714L162.081 29.1589H172.001L167.093 18.3714Z" fill="#1C252E"/>
<path d="M204.34 12.8369V17.2405H188.757V37.163H183.57V12.8369H204.34Z" fill="#1C252E"/>
<path d="M231.186 21.6165C231.186 24.8153 230.436 27.1741 228.939 28.7019C227.442 30.2298 225.159 30.9961 222.089 30.9961H212.372V37.1676H207.189V12.8369H222.022C225.271 12.8369 227.613 13.5108 229.042 14.8633C230.472 16.2158 231.186 18.4638 231.186 21.6165ZM221.091 16.9959H212.372V26.8325H221.159C222.781 26.8325 223.986 26.4401 224.764 25.6508C225.541 24.8661 225.932 23.5321 225.932 21.6488C225.932 19.7655 225.591 18.5838 224.903 17.9468C224.215 17.3098 222.948 16.9959 221.091 16.9959Z" fill="#1C252E"/>
<path d="M254.738 37.0936C253.021 37.4952 250.891 37.6937 248.351 37.6937C245.812 37.6937 243.686 37.4952 241.982 37.0936C240.279 36.6966 238.823 36.0135 237.623 35.0487C236.423 34.084 235.546 32.7869 234.998 31.1529C234.449 29.5188 234.175 27.4786 234.175 25.0367C234.175 22.5949 234.467 20.4254 235.052 18.7452C235.636 17.065 236.548 15.7587 237.798 14.8309C239.047 13.9031 240.504 13.2522 242.176 12.8737C243.848 12.4998 245.906 12.3105 248.356 12.3105C250.805 12.3105 252.891 12.4998 254.554 12.8737C256.213 13.2522 257.673 13.9031 258.932 14.8309C260.19 15.7587 261.107 17.065 261.678 18.7452C262.249 20.4254 262.536 22.5257 262.536 25.0367C262.536 27.5478 262.267 29.5188 261.727 31.1529C261.188 32.7869 260.321 34.084 259.116 35.0487C257.916 36.0135 256.455 36.6966 254.738 37.0936ZM244.351 33.0916C245.371 33.2901 246.702 33.3916 248.351 33.3916C250.001 33.3916 251.331 33.2901 252.352 33.0916C253.372 32.8931 254.28 32.4961 255.08 31.9099C255.88 31.3237 256.455 30.4743 256.797 29.3711C257.138 28.2679 257.314 26.8231 257.314 25.0321C257.314 23.2411 257.143 21.7179 256.797 20.5916C256.455 19.4653 255.875 18.6113 255.062 18.0343C254.248 17.4573 253.345 17.0788 252.352 16.8896C251.354 16.7003 250.023 16.608 248.351 16.608C247.025 16.608 245.929 16.6588 245.07 16.7649C244.212 16.8711 243.389 17.0881 242.598 17.4158C241.807 17.7435 241.2 18.219 240.778 18.8421C240.355 19.4653 240.023 20.2823 239.785 21.2932C239.546 22.3041 239.425 23.5504 239.425 25.0321C239.425 26.8185 239.596 28.2633 239.942 29.3711C240.284 30.4743 240.85 31.3237 241.641 31.9099C242.432 32.4961 243.335 32.8931 244.351 33.0916Z" fill="#1C252E"/>
<path d="M298.026 12.8369V17.2775H287.693V37.163H282.511V17.2775H272.209V12.8369H298.026Z" fill="#1C252E"/>
<path d="M321.681 32.9302V37.163H300.503V12.8369H321.65V17.0651H305.685V22.8489H321.376V27.0079H305.685V32.9302H321.681Z" fill="#1C252E"/>
<path d="M344.474 37.163L337.233 27.7511L330.055 37.163H323.497L333.732 24.963L324.082 12.8369H330.504L337.336 22.1427L344.2 12.8369H350.416L340.838 25L351 37.163H344.474Z" fill="#1C252E"/>
<path d="M48.686 24.1134V18.542C45.4588 20.1253 42.389 21.9947 39.5034 24.1134H48.686Z" fill="#1C252E"/>
<path d="M25.5071 24.1135H32.2805C37.2561 19.7099 42.78 16.1464 48.6859 13.4922V8.1377C39.9394 11.8489 32.0738 17.3188 25.5116 24.1135" fill="#1C252E"/>
<path d="M25.2059 25.8865V31.4025C26.3071 30.087 27.4577 28.8037 28.6668 27.562C29.2241 26.9897 29.795 26.4311 30.3658 25.8818H25.2059V25.8865Z" fill="#1C252E"/>
<path d="M48.6861 50.0005V25.8867H37.2112C32.6357 29.5933 28.5905 33.9554 25.2061 38.8391V50.0005H48.6861Z" fill="#1C252E"/>
<path d="M14.1986 50.0003C16.4954 44.1288 19.6057 38.5989 23.48 33.5583V26.3066C17.4078 33.1383 12.5895 41.17 9.40283 50.0049H14.1986V50.0003Z" fill="#1C252E"/>
<path d="M23.48 50V41.4697C21.7945 44.1793 20.3113 47.032 19.0438 50H23.48Z" fill="#1C252E"/>
<path d="M4.66533 50.0005C7.58684 41.2578 12.05 33.1061 17.911 25.8867H12.3017C6.98007 33.0876 2.79555 41.2163 0.0268555 50.0005H4.66533Z" fill="#1C252E"/>
<path d="M0 37.7359C1.9327 33.6231 4.18451 29.6626 6.75545 25.8867H0V37.7359Z" fill="#1C252E"/>
<path d="M48.6859 3.18962V0H44.6453C37.5887 3.07422 31.049 7.16857 25.2059 12.103V18.0622C32.1591 11.5722 40.1102 6.56388 48.6859 3.18962Z" fill="#1C252E"/>
<path d="M7.99597 24.1137C10.4905 20.6379 13.2592 17.3283 16.2886 14.2218C18.5808 11.8676 20.9855 9.67504 23.4845 7.63017V0H0V24.1137H7.99597Z" fill="#1C252E"/>
<path d="M13.6504 24.114H19.3945C20.4103 22.937 21.4621 21.7784 22.5543 20.6567C22.8599 20.3428 23.17 20.0335 23.4802 19.7289V13.6035C19.9069 16.7978 16.6169 20.3197 13.6504 24.114Z" fill="#1C252E"/>
<path d="M25.2059 6.25462C28.1814 3.95126 31.2872 1.86023 34.5053 0H25.2059V6.25462Z" fill="#1C252E"/>
</g>
<defs>
<clipPath id="clip0_206_2899">
<rect width="351" height="50" fill="white"/>
</clipPath>
</defs>
</svg>
