<svg width="51" height="51" viewBox="0 0 51 51" fill="none" xmlns="http://www.w3.org/2000/svg">
<path d="M34.5643 3.81184C31.775 2.64472 28.7128 2 25.5 2C12.5213 2 2 12.5213 2 25.5C2 30.6954 3.68597 35.4971 6.54064 39.3877M15.9664 46.9857C18.8801 48.2805 22.106 49 25.5 49C38.4787 49 49 38.4787 49 25.5C49 19.8056 46.9747 14.5843 43.605 10.5171M21.8071 9.6256C24.3396 9.01116 27.0576 9.00454 29.752 9.72651C38.3353 12.0264 43.429 20.8489 41.1291 29.4322C40.553 31.582 39.5678 33.5129 38.2796 35.1636M29.1929 40.9517C26.7106 41.5245 24.0557 41.5146 21.4234 40.8093C12.8401 38.5094 7.74644 29.6868 10.0463 21.1036C10.5366 19.2737 11.3234 17.6025 12.3411 16.1277M12.3411 16.1277C12.8104 16.529 13.4197 16.7714 14.0857 16.7714C15.569 16.7714 16.7714 15.569 16.7714 14.0857C16.7714 12.6024 15.569 11.4 14.0857 11.4C12.6024 11.4 11.4 12.6024 11.4 14.0857C11.4 14.903 11.7651 15.6351 12.3411 16.1277ZM38.2796 35.1636C37.7871 34.5911 37.0573 34.2286 36.2429 34.2286C34.7596 34.2286 33.5571 35.431 33.5571 36.9143C33.5571 38.3976 34.7596 39.6 36.2429 39.6C37.7261 39.6 38.9286 38.3976 38.9286 36.9143C38.9286 36.2455 38.6841 35.6337 38.2796 35.1636ZM6.54064 39.3877C5.82658 39.8704 5.35714 40.6875 5.35714 41.6143C5.35714 43.0976 6.55958 44.3 8.04286 44.3C9.52614 44.3 10.7286 43.0976 10.7286 41.6143C10.7286 40.131 9.52614 38.9286 8.04286 38.9286C7.48636 38.9286 6.9694 39.0978 6.54064 39.3877ZM43.605 10.5171C44.0369 10.0405 44.3 9.40811 44.3 8.71429C44.3 7.23101 43.0976 6.02857 41.6143 6.02857C40.131 6.02857 38.9286 7.23101 38.9286 8.71429C38.9286 10.1976 40.131 11.4 41.6143 11.4C42.4037 11.4 43.1136 11.0594 43.605 10.5171ZM31.6682 23.6996L33.9108 24.0662C33.9996 24.0808 34.0804 24.1265 34.1386 24.1952C34.1968 24.2638 34.2287 24.3509 34.2286 24.4409V26.5276C34.2285 26.6169 34.197 26.7033 34.1395 26.7717C34.082 26.84 34.0023 26.8859 33.9143 26.9012L31.6682 27.2958C31.5386 27.7473 31.3606 28.1783 31.134 28.5887L32.4619 30.4322C32.5149 30.5054 32.5399 30.5951 32.5327 30.6851C32.5254 30.7751 32.4863 30.8596 32.4223 30.9233L30.9466 32.3991C30.8836 32.4624 30.8002 32.5014 30.7112 32.5093C30.6223 32.5171 30.5333 32.4934 30.4602 32.4421L28.5981 31.1352C28.1857 31.3641 27.7494 31.5468 27.2969 31.6798L26.9012 33.9155C26.8856 34.0035 26.8395 34.0831 26.7709 34.1403C26.7024 34.1976 26.6158 34.2288 26.5265 34.2286H24.4409C24.3512 34.2287 24.2644 34.1969 24.196 34.1389C24.1276 34.0809 24.082 34.0005 24.0674 33.912L23.6961 31.688C23.2418 31.5564 22.8035 31.3749 22.3891 31.1468L20.541 32.4421C20.4678 32.4934 20.3789 32.5171 20.2899 32.5093C20.2009 32.5014 20.1176 32.4624 20.0545 32.3991L18.5777 30.9233C18.5149 30.8594 18.4765 30.7756 18.4691 30.6863C18.4617 30.597 18.4857 30.508 18.5369 30.4346L19.8439 28.6074C19.6133 28.1911 19.4298 27.7504 19.2969 27.2934L17.0845 26.9012C16.9967 26.8856 16.9173 26.8397 16.86 26.7714C16.8028 26.703 16.7714 26.6168 16.7714 26.5276V24.4409C16.7714 24.2547 16.9053 24.0964 17.0891 24.0662L19.3015 23.6973C19.4358 23.2395 19.6181 22.8019 19.8485 22.3845L18.5567 20.5387C18.5058 20.4656 18.4822 20.3769 18.49 20.2882C18.4979 20.1995 18.5368 20.1163 18.5998 20.0534L20.0766 18.5788C20.1401 18.5153 20.2241 18.4763 20.3136 18.4688C20.4031 18.4614 20.4923 18.4859 20.5654 18.5381L22.3984 19.8474C22.812 19.6208 23.2469 19.4424 23.7031 19.312L24.0662 17.0891C24.0808 17.0003 24.1265 16.9196 24.1952 16.8614C24.2638 16.8032 24.3509 16.7713 24.4409 16.7714H26.5276C26.7127 16.7714 26.8698 16.9041 26.9024 17.0857L27.2934 19.3202C27.7473 19.4513 28.1818 19.6317 28.5969 19.8613L30.4334 18.5404C30.5064 18.4873 30.596 18.462 30.686 18.4691C30.7761 18.4761 30.8606 18.515 30.9245 18.5788L32.4002 20.0545C32.4634 20.1177 32.5022 20.2011 32.5098 20.2901C32.5175 20.3791 32.4935 20.468 32.4421 20.541L31.1328 22.4066C31.3578 22.8178 31.5363 23.2484 31.6682 23.6984V23.6996ZM22.8419 25.5C22.8419 26.2047 23.1218 26.8805 23.6201 27.3788C24.1183 27.877 24.7942 28.157 25.4988 28.157C26.2035 28.157 26.8793 27.877 27.3776 27.3788C27.8759 26.8805 28.1558 26.2047 28.1558 25.5C28.1558 24.7953 27.8759 24.1195 27.3776 23.6212C26.8793 23.123 26.2035 22.843 25.4988 22.843C24.7942 22.843 24.1183 23.123 23.6201 23.6212C23.1218 24.1195 22.8419 24.7953 22.8419 25.5Z" stroke="#868686" stroke-width="1.5"/>
</svg>
