<svg width="40" height="39" viewBox="0 0 40 39" fill="none" xmlns="http://www.w3.org/2000/svg">
<path d="M25.0922 34.9204C26.5664 36.2162 28.4885 37 30.5906 37C35.235 37 39 33.174 39 28.4544C39 23.7348 35.235 19.9088 30.5906 19.9088C29.0589 19.9088 27.6228 20.3249 26.3859 21.052L21.6538 12.7865M28.0205 12.1529C28.3877 10.2076 28.0947 8.12425 27.0436 6.27423C24.7214 2.18693 19.5783 0.786517 15.5561 3.14632C11.534 5.50612 10.1559 10.7325 12.4781 14.8198C13.244 16.1678 14.3166 17.2236 15.5547 17.9486L11.0651 25.9304M6.64953 20.2912C4.80813 20.9408 3.17913 22.2403 2.12805 24.0904C-0.194139 28.1777 1.18395 33.4041 5.2061 35.7639C9.22824 38.1237 14.3713 36.7233 16.6935 32.636C17.4594 31.288 17.8228 29.8161 17.8216 28.364H27.6812M11.0651 25.9304C11.0013 25.8848 10.9351 25.8417 10.8663 25.8014C9.62868 25.0753 8.04618 25.5062 7.33167 26.7638C6.95137 27.4332 6.8936 28.2018 7.10935 28.8839C7.29897 29.4834 7.69986 30.016 8.27876 30.3557C9.51634 31.0818 11.0988 30.6509 11.8134 29.3932C12.4881 28.2055 12.1475 26.7052 11.0651 25.9304ZM21.6538 12.7865C22.5443 11.9737 22.7858 10.6124 22.1634 9.51697C21.7831 8.84761 21.1569 8.41245 20.4678 8.26127C19.8621 8.1284 19.2077 8.21489 18.6288 8.55453C17.3912 9.28062 16.9672 10.8888 17.6817 12.1464C18.3962 13.404 19.9787 13.8349 21.2163 13.1088C21.3759 13.0152 21.522 12.9069 21.6538 12.7865ZM27.6812 28.364C27.6802 28.394 27.6797 28.4241 27.6797 28.4544C27.6797 29.9066 28.8381 31.0838 30.2672 31.0838C31.0278 31.0838 31.7117 30.7503 32.1851 30.2194C32.6012 29.7528 32.8547 29.1337 32.8547 28.4544C32.8547 27.0022 31.6962 25.825 30.2672 25.825C28.8679 25.825 27.7281 26.9537 27.6812 28.364Z" stroke="#34C397" stroke-width="1.5"/>
</svg>
