<svg width="47" height="39" viewBox="0 0 47 39" fill="none" xmlns="http://www.w3.org/2000/svg">
<path d="M14.595 7.03734L23.1931 11.433C23.2868 11.481 23.3923 11.5061 23.4995 11.5061C23.6067 11.5061 23.7122 11.481 23.8059 11.433L32.4344 7.02186M23.5 20.296V11.5897M18.34 22.9231V26.4103L16.62 28.1538M23.5 24.6667V29.8974M28.66 22.9231V26.4103L30.38 28.1538M2 36H45M10.6 7.23077H6.5236C6.23621 7.23077 5.96059 7.34099 5.75738 7.53718C5.55416 7.73337 5.44 7.99947 5.44 8.27692V30.5949C5.44 30.8723 5.55416 31.1384 5.75738 31.3346C5.96059 31.5308 6.23621 31.641 6.5236 31.641H40.4764C40.7638 31.641 41.0394 31.5308 41.2426 31.3346C41.4458 31.1384 41.56 30.8723 41.56 30.5949V8.27692C41.56 7.99947 41.4458 7.73337 41.2426 7.53718C41.0394 7.34099 40.7638 7.23077 40.4764 7.23077H36.4M32.96 7.09441V16.0851C32.9601 16.1887 32.93 16.2905 32.8728 16.3798C32.8157 16.4691 32.7337 16.5427 32.6352 16.5929L23.8059 21.1067C23.7123 21.1544 23.607 21.1795 23.5 21.1795C23.393 21.1795 23.2877 21.1544 23.1941 21.1067L14.3648 16.5929C14.2663 16.5427 14.1843 16.4691 14.1272 16.3798C14.07 16.2905 14.0399 16.1887 14.04 16.0851V7.09441C14.0401 6.99095 14.0703 6.88939 14.1274 6.80027C14.1845 6.71115 14.2665 6.63769 14.3648 6.58751L23.1941 2.07283C23.2877 2.02506 23.393 2 23.5 2C23.607 2 23.7123 2.02506 23.8059 2.07283L32.6352 6.58751C32.7335 6.63769 32.8155 6.71115 32.8726 6.80027C32.9297 6.88939 32.9599 6.99095 32.96 7.09441Z" stroke="#34C397" stroke-width="1.5" stroke-linecap="round"/>
</svg>
