<svg width="39" height="39" viewBox="0 0 39 39" fill="none" xmlns="http://www.w3.org/2000/svg">
<path d="M20 19.5H20.0162M5.6 3H9.2M9.2 3H12.8M9.2 3V10.3333M27.2 3H30.8M30.8 3H34.4M30.8 3V10.3333M7.4 36V33.25C7.4 30.8188 8.34821 28.4873 10.036 26.7682C11.7239 25.0491 14.0131 24.0833 16.4 24.0833M32.6 36V33.25C32.6 30.8188 31.6518 28.4873 29.964 26.7682C28.2761 25.0491 25.9869 24.0833 23.6 24.0833M20 10.3333C10.0586 10.3333 2 11.9742 2 14C2 15.4777 6.2876 16.75 12.467 17.3312C13.5794 17.4357 14.3426 18.532 14.4614 19.6632C14.7692 22.6057 17.0912 25 20 25C22.9088 25 25.2308 22.6057 25.5386 19.665C25.6574 18.532 26.4206 17.4357 27.533 17.3312C33.7124 16.75 38 15.4777 38 14C38 11.9742 29.9414 10.3333 20 10.3333Z" stroke="#34C397" stroke-width="1.5" stroke-linecap="round" stroke-linejoin="round"/>
</svg>
