<svg width="39" height="39" viewBox="0 0 39 39" fill="none" xmlns="http://www.w3.org/2000/svg">
<path d="M7.95 15.1V23.9M15.1 31.05H23.9M31.05 23.9V15.1M23.9 7.95H15.1M24.5 14.5L19.5 19.5L14.5 24.5M14.5 14.5L18 18M24.5 24.5L21 21M12.3802 3C12.5181 3 12.6503 3.0447 12.7478 3.12427C12.8452 3.20384 12.9 3.31176 12.9 3.42429V12.4757C12.9 12.5882 12.8452 12.6962 12.7478 12.7757C12.6503 12.8553 12.5181 12.9 12.3802 12.9H3.51975C3.3819 12.9 3.2497 12.8553 3.15223 12.7757C3.05476 12.6962 3 12.5882 3 12.4757V3.42429C3 3.31176 3.05476 3.20384 3.15223 3.12427C3.2497 3.0447 3.3819 3 3.51975 3H12.3802ZM35.4803 3C35.6181 3 35.7503 3.0447 35.8478 3.12427C35.9452 3.20384 36 3.31176 36 3.42429V12.4757C36 12.5882 35.9452 12.6962 35.8478 12.7757C35.7503 12.8553 35.6181 12.9 35.4803 12.9H26.6198C26.4819 12.9 26.3497 12.8553 26.2522 12.7757C26.1548 12.6962 26.1 12.5882 26.1 12.4757V3.42429C26.1 3.31176 26.1548 3.20384 26.2522 3.12427C26.3497 3.0447 26.4819 3 26.6198 3H35.4803ZM35.4803 26.1C35.6181 26.1 35.7503 26.1447 35.8478 26.2243C35.9452 26.3038 36 26.4118 36 26.5243V35.5757C36 35.6882 35.9452 35.7962 35.8478 35.8757C35.7503 35.9553 35.6181 36 35.4803 36H26.6198C26.4819 36 26.3497 35.9553 26.2522 35.8757C26.1548 35.7962 26.1 35.6882 26.1 35.5757V26.5243C26.1 26.4118 26.1548 26.3038 26.2522 26.2243C26.3497 26.1447 26.4819 26.1 26.6198 26.1H35.4803ZM12.3802 26.1C12.5181 26.1 12.6503 26.1447 12.7478 26.2243C12.8452 26.3038 12.9 26.4118 12.9 26.5243V35.5757C12.9 35.6882 12.8452 35.7962 12.7478 35.8757C12.6503 35.9553 12.5181 36 12.3802 36H3.51975C3.3819 36 3.2497 35.9553 3.15223 35.8757C3.05476 35.7962 3 35.6882 3 35.5757V26.5243C3 26.4118 3.05476 26.3038 3.15223 26.2243C3.2497 26.1447 3.3819 26.1 3.51975 26.1H12.3802Z" stroke="#34C397" stroke-width="1.5"/>
</svg>
